<svg xmlns="http://www.w3.org/2000/svg" width="215.196" height="160.569" viewBox="0 0 215.196 160.569">
  <g id="check_1_" data-name="check (1)" transform="translate(0 -64.985)">
    <path id="Path_5214" data-name="Path 5214" d="M184.39,73.084,90.027,167.447a6.513,6.513,0,0,1-9.211,0L40.2,126.826l-32.1,32.1L69.373,220.2a22.7,22.7,0,0,0,16.049,6.648h0A22.7,22.7,0,0,0,101.47,220.2L216.487,105.18Z" transform="translate(-4.695 -4.695)" fill="#f68f1d"/>
    <g id="Group_934" data-name="Group 934" transform="translate(67.607 89.872)" opacity="0.84">
      <path id="Path_5215" data-name="Path 5215" d="M294.423,124.2,173,245.619a24.846,24.846,0,0,1-12.148,6.671,22.692,22.692,0,0,0,13.12,4.184h0a22.7,22.7,0,0,0,16.048-6.648L305.037,134.81Z" transform="translate(-160.852 -124.196)" fill="#f16230"/>
    </g>
    <path id="Path_5216" data-name="Path 5216" d="M80.727,299.675a25.93,25.93,0,0,1-18.456-7.645L1,230.756a3.4,3.4,0,0,1,0-4.814l32.1-32.1a3.4,3.4,0,0,1,4.815,0l12.049,12.049a3.4,3.4,0,0,1-4.815,4.814L35.5,201.066,8.219,228.349l58.867,58.867a19.293,19.293,0,0,0,27.283,0l78.577-78.577a3.4,3.4,0,1,1,4.815,4.814L99.183,292.031A25.933,25.933,0,0,1,80.727,299.675Z" transform="translate(0 -74.121)"/>
    <path id="Path_5217" data-name="Path 5217" d="M154.9,168.064a9.851,9.851,0,0,1-7.012-2.9l-18.942-18.942a3.4,3.4,0,0,1,4.815-4.814L152.7,160.345a3.109,3.109,0,0,0,4.4,0l94.362-94.363a3.4,3.4,0,0,1,4.815,0l32.1,32.1a3.4,3.4,0,0,1,0,4.814l-26.81,26.81a3.4,3.4,0,0,1-4.815-4.814l24.4-24.4L253.864,73.2l-91.956,91.955A9.854,9.854,0,0,1,154.9,168.064Z" transform="translate(-74.168 0)"/>
  </g>
</svg>
