<svg xmlns="http://www.w3.org/2000/svg" width="168" height="168.177" viewBox="0 0 168 168.177">
  <g id="Page-1" transform="translate(0 -0.937)">
    <g id="_059---Knife" data-name="059---Knife" transform="translate(0 0.937)">
      <path id="Shape" d="M126.277,10.288a28.325,28.325,0,0,0-40.04,0L14.781,81.744a5.715,5.715,0,0,0-1.288,6.02l.9,2.38,16.52,43.54.2.5a5.664,5.664,0,0,0,9.3,2.016l85.876-85.876a28.308,28.308,0,0,0,0-40.04ZM114.265,34.312a8.492,8.492,0,1,1,0-12.012,8.492,8.492,0,0,1,0,12.012Z" transform="translate(23.635 0.976)" fill="#f68f1d"/>
      <path id="Shape-2" data-name="Shape" d="M113.995,10.288A28.171,28.171,0,0,0,93.975,2a28.543,28.543,0,0,0-4.2.342,28.28,28.28,0,0,1,15.82,47.986L19.954,135.969a5.642,5.642,0,0,0,8.165.235l85.876-85.876a28.308,28.308,0,0,0,0-40.04Z" transform="translate(35.917 0.976)" fill="#f16230"/>
      <path id="Shape-3" data-name="Shape" d="M58.822,39.141,52.83,45.133,32.81,25.113,38.8,19.121a14.157,14.157,0,1,1,20.02,20.02Z" transform="translate(59.058 24.175)" fill="#f5f5f5"/>
      <path id="Shape-4" data-name="Shape" d="M51.226,19.082a14.224,14.224,0,0,0-10-4.172,14.541,14.541,0,0,0-4.2.72,14.064,14.064,0,0,1,5.8,23.472l-1.792,1.792,4.2,4.2L51.226,39.1A14.179,14.179,0,0,0,51.226,19.082Z" transform="translate(66.654 24.214)" fill="#cfd8dc"/>
      <path id="Shape-5" data-name="Shape" d="M54.462,42.85,34.582,62.73,25.23,32.042l9.212-9.212Z" transform="translate(45.414 38.47)" fill="#f5f5f5"/>
      <path id="Shape-6" data-name="Shape" d="M31.22,22.83l-4.2,4.2L42.84,42.85,29.4,56.293,31.36,62.73,51.24,42.85Z" transform="translate(48.636 38.47)" fill="#cfd8dc"/>
      <path id="Shape-7" data-name="Shape" d="M43.414,56.808,37.17,63.052a5.65,5.65,0,0,1-9.184-1.792l-7.2-16.8a5.667,5.667,0,0,1,1.176-6.244l12.1-12.1Z" transform="translate(36.582 44.392)" fill="#f5f5f5"/>
      <path id="Shape-8" data-name="Shape" d="M29.37,26.12l-6.44,6.44,7.392,24.248-6,6a5.639,5.639,0,0,0,8.159.241l6.244-6.244Z" transform="translate(41.274 44.392)" fill="#cfd8dc"/>
      <path id="Shape-9" data-name="Shape" d="M61.093,43.077l-8.036,8.064a2.8,2.8,0,0,1-3.948,0l-.028-.028-20.02-20.02-.028-.028a2.8,2.8,0,0,1,0-3.948L37.1,19.053a2.8,2.8,0,0,1,3.948,0L61.093,39.1v.028a2.8,2.8,0,0,1,0,3.948Z" transform="translate(50.795 30.207)" fill="#afb9d2"/>
      <path id="Shape-10" data-name="Shape" d="M56.826,39.129V39.1L36.778,19.053a2.8,2.8,0,0,0-3.948,0l-2.24,2.226L48.426,39.1v.028a2.8,2.8,0,0,1,0,3.948l-5.813,5.835,2.2,2.2.028.028a2.8,2.8,0,0,0,3.948,0l8.036-8.064a2.8,2.8,0,0,0,0-3.948Z" transform="translate(55.062 30.207)" fill="#37474f"/>
      <path id="Shape-11" data-name="Shape" d="M37.948,77.02l-14.7,14.728-.028-.028-14-46.032L21.428,33.48Z" transform="translate(16.596 57.64)" fill="#f5f5f5"/>
      <path id="Shape-12" data-name="Shape" d="M17.5,33.48,11.4,39.57l14.21,37.45-8.277,8.294,1.949,6.406.028.028,14.7-14.728Z" transform="translate(20.529 57.64)" fill="#cfd8dc"/>
      <path id="Shape-13" data-name="Shape" d="M33.544,83.9,17.528,99.888,3.5,53.856,19.516,37.84l14,46.032Z" transform="translate(6.3 65.488)" fill="#f5f5f5"/>
      <path id="Shape-14" data-name="Shape" d="M27.36,83.872l-14-46.032L6.92,44.28,18.96,83.872l.028.028L9.412,93.459l1.96,6.429L27.388,83.9Z" transform="translate(12.456 65.488)" fill="#cfd8dc"/>
      <g id="Group_935" data-name="Group 935">
        <path id="Shape-15" data-name="Shape" d="M54.359,29.931a11.284,11.284,0,1,0-7.983-3.3A11.284,11.284,0,0,0,54.359,29.931ZM50.344,14.62a5.684,5.684,0,1,1-1.68,4.024,5.684,5.684,0,0,1,1.68-4.024Z" transform="translate(77.521 10.627)" fill="#000e51"/>
        <path id="Shape-16" data-name="Shape" d="M27.215,84.36a8.425,8.425,0,0,0,6.16,4.981A8.574,8.574,0,0,0,35,89.5a8.439,8.439,0,0,0,5.967-2.472L65.639,62.355a5.449,5.449,0,0,0,5.424-1.42l8.044-8.047a5.552,5.552,0,0,0,1.644-3.956,5.477,5.477,0,0,0-.221-1.47L85.091,42.9A16.951,16.951,0,1,0,61.12,18.927l-4.564,4.564a5.6,5.6,0,0,0-5.424,1.42l-8.058,8.044a5.426,5.426,0,0,0-1.422,5.426l-19.88,19.88A8.487,8.487,0,0,0,20,67.566ZM61.14,58.928l-14.594,14.6-7.5-24.609,6.037-6.037Zm3.94-36.053A11.352,11.352,0,0,1,81.132,38.93l-4.024,4.024L61.053,26.9Zm-9.988,5.984L75.151,48.915l-8.05,8.05-.014-.014-4.018-4.018,2.024-2.024a2.8,2.8,0,0,0-3.973-3.954L59.1,48.979l-12.04-12.04ZM25.75,62.209,34.559,53.4l7.5,24.612-5.04,5.04a2.842,2.842,0,0,1-2.562.778,2.8,2.8,0,0,1-2.075-1.68L25.154,65.337A2.848,2.848,0,0,1,25.75,62.209Z" transform="translate(34.766 22.381)" fill="#000e51"/>
        <path id="Shape-17" data-name="Shape" d="M5.6,59H2.8a2.8,2.8,0,1,0,0,5.6H5.6a2.8,2.8,0,1,0,0-5.6Z" transform="translate(0 103.576)" fill="#000e51"/>
        <path id="Shape-18" data-name="Shape" d="M160.7,163.513H26.07L49.556,140.03a8.362,8.362,0,0,0,11.962.059l85.873-85.876A31.105,31.105,0,1,0,103.4,10.224L31.925,81.683A8.478,8.478,0,0,0,30,90.666l.26.686L3.323,118.293a2.8,2.8,0,0,0-.7,2.8l14,46.032a1.681,1.681,0,0,0,.1.23,1.1,1.1,0,0,0,.045.1,2.778,2.778,0,0,0,1.378,1.4c.062.028.123.048.188.073a2.746,2.746,0,0,0,.28.112,2.68,2.68,0,0,0,.683.073H160.7a2.8,2.8,0,1,0,0-5.6ZM35.887,85.64l71.464-71.464a25.505,25.505,0,1,1,36.07,36.07L57.547,136.121a2.862,2.862,0,0,1-4.7-1.008l-.216-.56L36.116,90.993l-.879-2.318a2.878,2.878,0,0,1,.65-3.035Zm10.886,49.246-10.13,10.128L24.479,105.055l7.96-7.96ZM19.991,109.543l12.163,39.97L20.629,161.027,8.472,121.065Z" transform="translate(4.501 -0.937)" fill="#000e51"/>
      </g>
    </g>
  </g>
</svg>
