<svg xmlns="http://www.w3.org/2000/svg" width="196.321" height="169.866" viewBox="0 0 196.321 169.866">
  <g id="sewing-machine" transform="translate(0 0)">
    <g id="Group_936" data-name="Group 936" transform="translate(15.592 77.841)">
      <path id="Path_5218" data-name="Path 5218" d="M107.805,214.139H93.024a2.492,2.492,0,0,1-2.492-2.492v-8.639H110.3v8.639A2.492,2.492,0,0,1,107.805,214.139Zm0,0" transform="translate(-71.41 -203.008)" fill="#afb9d2"/>
      <path id="Path_5219" data-name="Path 5219" d="M77.555,420.9H43.514a2.85,2.85,0,0,1-2.85-2.85v-6.235H80.407v6.235a2.852,2.852,0,0,1-2.852,2.85Zm0,0" transform="translate(-40.664 -331.749)" fill="#afb9d2"/>
      <path id="Path_5220" data-name="Path 5220" d="M400.325,420.9H366.284a2.85,2.85,0,0,1-2.85-2.85v-6.235h39.743v6.235a2.852,2.852,0,0,1-2.852,2.85Zm0,0" transform="translate(-239.672 -331.749)" fill="#afb9d2"/>
    </g>
    <path id="Path_5221" data-name="Path 5221" d="M197.741,50.212l-.076,26.3-.1,33.892v65.61a2.255,2.255,0,0,1-2.257,2.253H9.281a2.255,2.255,0,0,1-2.257-2.253V148.518A13.343,13.343,0,0,1,20.4,135.207H134.315V85.71a7.784,7.784,0,0,0-7.783-7.783H93.488A17.841,17.841,0,0,0,78.833,85.59l-3.9,5.614a17.84,17.84,0,0,1-14.655,7.66H35.533A11.113,11.113,0,0,1,24.418,87.756V44A11.112,11.112,0,0,1,35.533,32.894H180.294a17.427,17.427,0,0,1,17.446,17.318Zm0,0" transform="translate(-4.33 -20.281)" fill="#f68f1d"/>
    <path id="Path_5222" data-name="Path 5222" d="M63.5,156.476H88.249a17.838,17.838,0,0,0,14.655-7.66l3.9-5.614a17.841,17.841,0,0,1,14.655-7.663H154.5a7.784,7.784,0,0,1,7.783,7.783v-9.206a7.784,7.784,0,0,0-7.783-7.781H121.457A17.841,17.841,0,0,0,106.8,134l-3.9,5.614a17.838,17.838,0,0,1-14.655,7.66H63.5a11.113,11.113,0,0,1-11.115-11.108v9.2A11.113,11.113,0,0,0,63.5,156.476Zm0,0" transform="translate(-32.3 -77.893)" fill="#f16230"/>
    <path id="Path_5223" data-name="Path 5223" d="M195.308,384.39H9.28a2.255,2.255,0,0,1-2.257-2.253v9.2a2.255,2.255,0,0,0,2.257,2.253H195.308a2.255,2.255,0,0,0,2.257-2.253v-9.2A2.255,2.255,0,0,1,195.308,384.39Zm0,0" transform="translate(-4.33 -235.611)" fill="#f16230"/>
    <path id="Path_5224" data-name="Path 5224" d="M313.87,68.506V80.6a5.427,5.427,0,0,1-5.427,5.424H219.678A5.427,5.427,0,0,1,214.25,80.6V68.506a5.424,5.424,0,0,1,5.428-5.424h88.765A5.423,5.423,0,0,1,313.87,68.506Zm0,0" transform="translate(-132.098 -38.894)" fill="#fff"/>
    <path id="Path_5225" data-name="Path 5225" d="M341.173,65.891V85.6c0,.138,0,.276,0,.415H296.731c0-.139,0-.277,0-.415V63.078h44.32c.082.885.126,1.83.126,2.813Zm0,0" transform="translate(-182.95 -38.891)" fill="#fff"/>
    <path id="Path_5226" data-name="Path 5226" d="M436.189,68.5V80.6a5.427,5.427,0,0,1-5.427,5.424H412.641V63.078h18.122a5.425,5.425,0,0,1,5.427,5.425Zm0,0" transform="translate(-254.418 -38.891)" fill="#fff"/>
    <path id="Path_5227" data-name="Path 5227" d="M184.748,17.249H158.527a13.69,13.69,0,0,1,26.221,0Zm0,0" transform="translate(-97.742 -4.624)" fill="#c7cfe2"/>
    <path id="Path_5228" data-name="Path 5228" d="M339,280.262h63.251v7.461H339Zm0,0" transform="translate(-209.012 -172.799)" fill="#f16230"/>
    <path id="Path_5229" data-name="Path 5229" d="M373.092,233.318a4.733,4.733,0,0,1-2.889,6.969l-3.036.794a4.593,4.593,0,0,0-1.189.493H339V208.48a4.732,4.732,0,0,1,6.82-2.414l2.713,1.585a4.729,4.729,0,0,0,4.779,0l2.711-1.585a4.734,4.734,0,0,1,6.971,2.883l.8,3.039a4.736,4.736,0,0,0,3.379,3.378l3.036.794a4.733,4.733,0,0,1,2.891,6.968l-1.585,2.707a4.722,4.722,0,0,0,0,4.779Zm0,0" transform="translate(-209.012 -126.65)" fill="#fff"/>
    <path id="Path_5230" data-name="Path 5230" d="M469.82,145.425l-.1,33.892v.407l-1.767-1.469a3.674,3.674,0,0,0-3.7,0l-2.1,1.228a3.667,3.667,0,0,1-5.4-2.236l-.616-2.35a3.671,3.671,0,0,0-2.617-2.615l-2.353-.616a3.661,3.661,0,0,1-2.233-5.392l1.225-2.1a3.66,3.66,0,0,0,0-3.7l-1.225-2.1a3.661,3.661,0,0,1,2.233-5.392l2.353-.616a3.669,3.669,0,0,0,2.617-2.615l.616-2.35a3.667,3.667,0,0,1,5.4-2.236l2.1,1.228a3.673,3.673,0,0,0,3.7,0Zm0,0" transform="translate(-276.486 -89.197)" fill="#fff"/>
    <path id="Path_5231" data-name="Path 5231" d="M361.095,252.577a17.121,17.121,0,0,1-1.7,7.47H339V236.077a17.229,17.229,0,0,1,22.1,16.5Zm0,0" transform="translate(-209.012 -145.123)" fill="#fff"/>
    <path id="Path_5232" data-name="Path 5232" d="M196.108,191.2c0-.031,0-.061-.006-.093s0-.066.006-.1l.136-64a2.876,2.876,0,0,0-2.868-2.883h-.007A2.876,2.876,0,0,0,190.493,127l-.009,3.984-.463.271a.8.8,0,0,1-.8,0l-2.1-1.23a6.542,6.542,0,0,0-9.629,3.989l-.617,2.35a.788.788,0,0,1-.563.563l-2.35.616a6.537,6.537,0,0,0-3.99,9.625l1.227,2.1a.788.788,0,0,1,0,.794l-1.224,2.1a6.536,6.536,0,0,0,3.986,9.626l2.352.616a.792.792,0,0,1,.565.563l.617,2.353a6.533,6.533,0,0,0,9.631,3.986l2.1-1.227a.8.8,0,0,1,.8,0l.389.228-.043,19.826H166.989c.01-.025.022-.051.034-.076a7.554,7.554,0,0,0-.46-6.755,0,0,0,0,1,0,0l-1.586-2.707a1.853,1.853,0,0,1,0-1.872l1.588-2.708a7.609,7.609,0,0,0-4.646-11.2l-3.033-.794a1.856,1.856,0,0,1-1.329-1.327l-.8-3.032a7.608,7.608,0,0,0-11.2-4.642L142.84,154.6a1.856,1.856,0,0,1-1.874,0l-2.708-1.582a7.581,7.581,0,0,0-5.4-.882V141.883a10.683,10.683,0,0,0-10.672-10.67H107.265a2.876,2.876,0,0,0,0,5.752h14.923a4.925,4.925,0,0,1,4.92,4.919v46.459H16.25A16.264,16.264,0,0,0,0,204.583v27.6a5.138,5.138,0,0,0,5.133,5.131h7.583v3.36a5.733,5.733,0,0,0,5.726,5.726H52.483a5.734,5.734,0,0,0,5.728-5.726v-3.36h78.268v3.36A5.733,5.733,0,0,0,142.2,246.4h34.041a5.733,5.733,0,0,0,5.726-5.726v-3.36h9.216a5.141,5.141,0,0,0,5.133-5.146Zm-9.8-28.093-2.1,1.228a.766.766,0,0,1-.7.048.781.781,0,0,1-.464-.532l-.616-2.35a6.552,6.552,0,0,0-4.67-4.667l-2.356-.617a.757.757,0,0,1-.524-.457.773.773,0,0,1,.048-.7l1.225-2.1a6.549,6.549,0,0,0,0-6.6l-1.227-2.1a.77.77,0,0,1-.048-.7.757.757,0,0,1,.527-.458l2.353-.616a6.55,6.55,0,0,0,4.669-4.667l.617-2.35a.781.781,0,0,1,.464-.532.8.8,0,0,1,.307-.063.769.769,0,0,1,.391.109l2.1,1.23a6.538,6.538,0,0,0,4.155.836l-.052,25.211a6.553,6.553,0,0,0-4.1.843Zm-52.518-5.283a1.829,1.829,0,0,1,1.559.151l2.707,1.582a7.6,7.6,0,0,0,7.685,0l2.714-1.585a1.856,1.856,0,0,1,2.735,1.134l.8,3.032a7.615,7.615,0,0,0,5.434,5.434l3.036.794A1.855,1.855,0,0,1,161.6,171.1l-1.585,2.707a7.606,7.606,0,0,0,0,7.687L161.6,184.2a1.857,1.857,0,0,1-1.137,2.732l-3.035.794a7.609,7.609,0,0,0-1.149.4h-1.851a20.088,20.088,0,0,0-19.561-24.673c-.673,0-1.342.036-2.007.1v-5a1.859,1.859,0,0,1,.935-.729Zm-.935,11.518a14.352,14.352,0,0,1,16.347,14.189,14.2,14.2,0,0,1-.752,4.594h-15.6Zm-80.377,71.3-34.015.024v-3.36h4.6a2.875,2.875,0,1,0,0-5.75H5.751V204.583a10.5,10.5,0,0,1,10.5-10.489h65v37.471h-46.3a2.875,2.875,0,1,0,0,5.75H52.47Zm123.764,0-34.017.024v-3.36h34Zm2.85-9.086H87V194.094H190.371l.195,37.471Zm0,0" transform="translate(0 -76.533)" fill="#000e51"/>
    <path id="Path_5233" data-name="Path 5233" d="M153.25,166.72a2.965,2.965,0,1,0-2.964,2.963A2.963,2.963,0,0,0,153.25,166.72Zm0,0" transform="translate(-90.832 -100.966)"/>
    <path id="Path_5234" data-name="Path 5234" d="M239.254,88.228a2.965,2.965,0,1,0-2.966,2.963A2.964,2.964,0,0,0,239.254,88.228Zm0,0" transform="translate(-143.859 -52.571)"/>
    <path id="Path_5235" data-name="Path 5235" d="M34.36,37.874h2.4V67.415A14,14,0,0,0,50.749,81.4h.5v5.082a5.375,5.375,0,0,0,5.368,5.368h9.259v13.669a2.876,2.876,0,1,0,5.752,0V91.837a5.37,5.37,0,0,0,5.139-5.356V81.337a20.733,20.733,0,0,0,15.52-8.845l3.906-5.623a14.989,14.989,0,0,1,12.312-6.439h6.3a2.876,2.876,0,0,0,0-5.752h-6.3A20.741,20.741,0,0,0,91.47,63.59l-3.906,5.623a14.99,14.99,0,0,1-12.312,6.435H71.414V15.5H195.546a14.393,14.393,0,0,1,14.4,14.416l-.016,7.925a2.874,2.874,0,0,0,2.87,2.882h.006a2.876,2.876,0,0,0,2.876-2.868l.016-7.926a20.143,20.143,0,0,0-20.15-20.181H182.581V4.45a2.876,2.876,0,0,0-5.752,0v5.3H108.4a16.56,16.56,0,0,0-30.19,0H50.749A14,14,0,0,0,36.758,23.733v8.389h-2.4a2.876,2.876,0,1,0,0,5.752ZM57,81.722H71.016V86.1H57ZM93.3,5.752a10.888,10.888,0,0,1,8.388,4H84.92A10.879,10.879,0,0,1,93.3,5.752Zm-50.8,17.981A8.246,8.246,0,0,1,50.749,15.5H65.663V75.648H50.749a8.246,8.246,0,0,1-8.239-8.233Zm0,0" transform="translate(-19.412 0)" fill="#000e51"/>
    <path id="Path_5236" data-name="Path 5236" d="M297.386,55.578h-82.5a8.149,8.149,0,0,0-8.139,8.139V76.13a8.149,8.149,0,0,0,8.139,8.141h89.093a8.15,8.15,0,0,0,8.141-8.141V63.717a8.149,8.149,0,0,0-8.141-8.139Zm-2.874,5.752v5.719h-5.937V61.33ZM282.822,78.519h-38.7V61.33h38.7ZM212.5,76.13V63.717a2.39,2.39,0,0,1,2.387-2.388h23.486V78.518H214.889A2.391,2.391,0,0,1,212.5,76.13Zm76.072,2.389V72.8h5.937v5.719Zm15.408,0h-3.721V72.8h6.108v3.33a2.391,2.391,0,0,1-2.388,2.389Zm2.388-14.8v3.331h-6.108V61.33h3.721a2.39,2.39,0,0,1,2.388,2.388Zm0,0" transform="translate(-127.474 -34.267)" fill="#000e51"/>
    <path id="Path_5237" data-name="Path 5237" d="M480.664,185.959a2.965,2.965,0,1,0-2.966,2.963A2.965,2.965,0,0,0,480.664,185.959Zm0,0" transform="translate(-292.703 -112.828)"/>
    <path id="Path_5238" data-name="Path 5238" d="M362.969,267.142A2.965,2.965,0,1,0,360,270.1,2.963,2.963,0,0,0,362.969,267.142Zm0,0" transform="translate(-220.137 -162.883)"/>
  </g>
</svg>
